<svg xmlns="http://www.w3.org/2000/svg" xmlns:xlink="http://www.w3.org/1999/xlink" width="1000" zoomAndPan="magnify" viewBox="0 0 750 225" height="300" preserveAspectRatio="xMidYMid meet" version="1.0"><defs><g/></defs><g fill="#0061fe" fill-opacity="1"><g transform="translate(43.820619, 183.109353)"><g><path d="M 8 -38.71875 C 6.9375 -39.78125 6.296875 -40.578125 6.078125 -41.109375 C 5.867188 -41.648438 5.765625 -42.773438 5.765625 -44.484375 L 5.765625 -51.84375 C 5.765625 -53.550781 5.867188 -54.671875 6.078125 -55.203125 C 6.296875 -55.734375 6.9375 -56.53125 8 -57.59375 L 71.203125 -123.359375 C 72.585938 -124.847656 73.4375 -125.539062 73.75 -125.4375 C 74.070312 -125.332031 74.234375 -124.210938 74.234375 -122.078125 L 74.234375 -106.875 C 74.234375 -105.8125 74.207031 -104.957031 74.15625 -104.3125 C 74.101562 -103.675781 73.992188 -103.144531 73.828125 -102.71875 C 73.671875 -102.289062 73.378906 -101.835938 72.953125 -101.359375 C 72.523438 -100.878906 71.992188 -100.265625 71.359375 -99.515625 L 24.796875 -50.875 C 23.941406 -50.019531 23.539062 -49.273438 23.59375 -48.640625 C 23.65625 -48.003906 24.164062 -47.148438 25.125 -46.078125 L 71.359375 3.203125 C 72.109375 4.054688 72.664062 4.695312 73.03125 5.125 C 73.40625 5.550781 73.671875 6.003906 73.828125 6.484375 C 73.992188 6.960938 74.101562 7.492188 74.15625 8.078125 C 74.207031 8.660156 74.234375 9.488281 74.234375 10.5625 L 74.234375 25.765625 C 74.234375 27.890625 74.070312 29.003906 73.75 29.109375 C 73.4375 29.222656 72.585938 28.535156 71.203125 27.046875 Z M 8 -38.71875 "/></g></g></g><g fill="#5e7ce2" fill-opacity="1"><g transform="translate(143.324526, 137.890654)"><g><path d="M 8.796875 27.046875 C 7.410156 28.535156 6.554688 29.222656 6.234375 29.109375 C 5.921875 29.003906 5.765625 27.890625 5.765625 25.765625 L 5.765625 10.5625 C 5.765625 9.488281 5.789062 8.632812 5.84375 8 C 5.894531 7.363281 6 6.832031 6.15625 6.40625 C 6.320312 5.976562 6.617188 5.519531 7.046875 5.03125 C 7.472656 4.550781 8.003906 3.941406 8.640625 3.203125 L 54.875 -46.078125 C 55.832031 -47.148438 56.335938 -48.003906 56.390625 -48.640625 C 56.453125 -49.273438 56.054688 -50.019531 55.203125 -50.875 L 8.640625 -99.515625 C 7.890625 -100.265625 7.328125 -100.878906 6.953125 -101.359375 C 6.585938 -101.835938 6.320312 -102.316406 6.15625 -102.796875 C 6 -103.273438 5.894531 -103.804688 5.84375 -104.390625 C 5.789062 -104.984375 5.765625 -105.8125 5.765625 -106.875 L 5.765625 -122.078125 C 5.765625 -124.210938 5.921875 -125.332031 6.234375 -125.4375 C 6.554688 -125.539062 7.410156 -124.847656 8.796875 -123.359375 L 72 -57.59375 C 73.0625 -56.53125 73.695312 -55.734375 73.90625 -55.203125 C 74.125 -54.671875 74.234375 -53.550781 74.234375 -51.84375 L 74.234375 -44.484375 C 74.234375 -42.773438 74.125 -41.648438 73.90625 -41.109375 C 73.695312 -40.578125 73.0625 -39.78125 72 -38.71875 Z M 8.796875 27.046875 "/></g></g></g><path stroke-linecap="butt" transform="matrix(0, 0.75132, -0.75, 0, 144.82095, 16.644205)" fill="none" stroke-linejoin="miter" d="M 0.00043436 15.000851 L 257.557709 15.000851 " stroke="#4c5270" stroke-width="30" stroke-opacity="1" stroke-miterlimit="4"/><g fill="#000000" fill-opacity="1"><g transform="translate(242.828428, 141.932559)"><g><path d="M 5.546875 0 L 5.546875 -73.328125 L 35.84375 -73.328125 C 41.332031 -73.328125 46.078125 -72.257812 50.078125 -70.125 C 54.078125 -67.988281 57.160156 -65.015625 59.328125 -61.203125 C 61.503906 -57.398438 62.59375 -52.976562 62.59375 -47.9375 C 62.59375 -42.882812 61.488281 -38.460938 59.28125 -34.671875 C 57.070312 -30.890625 53.925781 -27.957031 49.84375 -25.875 C 45.757812 -23.800781 40.910156 -22.765625 35.296875 -22.765625 L 16.609375 -22.765625 L 16.609375 -36.734375 L 32.015625 -36.734375 C 34.679688 -36.734375 36.914062 -37.195312 38.71875 -38.125 C 40.519531 -39.0625 41.882812 -40.367188 42.8125 -42.046875 C 43.75 -43.734375 44.21875 -45.695312 44.21875 -47.9375 C 44.21875 -50.207031 43.75 -52.171875 42.8125 -53.828125 C 41.882812 -55.492188 40.515625 -56.78125 38.703125 -57.6875 C 36.890625 -58.59375 34.660156 -59.046875 32.015625 -59.046875 L 23.28125 -59.046875 L 23.28125 0 Z M 5.546875 0 "/></g></g></g><g fill="#000000" fill-opacity="1"><g transform="translate(308.570903, 141.932559)"><g><path d="M 31.265625 1.03125 C 25.503906 1.03125 20.539062 -0.101562 16.375 -2.375 C 12.21875 -4.65625 9.019531 -7.914062 6.78125 -12.15625 C 4.550781 -16.394531 3.4375 -21.4375 3.4375 -27.28125 C 3.4375 -32.96875 4.554688 -37.941406 6.796875 -42.203125 C 9.046875 -46.460938 12.210938 -49.78125 16.296875 -52.15625 C 20.378906 -54.53125 25.1875 -55.71875 30.71875 -55.71875 C 34.632812 -55.71875 38.210938 -55.109375 41.453125 -53.890625 C 44.703125 -52.671875 47.507812 -50.867188 49.875 -48.484375 C 52.238281 -46.097656 54.078125 -43.15625 55.390625 -39.65625 C 56.703125 -36.15625 57.359375 -32.148438 57.359375 -27.640625 L 57.359375 -23.28125 L 9.5625 -23.28125 L 9.5625 -33.4375 L 41.0625 -33.4375 C 41.039062 -35.300781 40.597656 -36.960938 39.734375 -38.421875 C 38.878906 -39.878906 37.707031 -41.019531 36.21875 -41.84375 C 34.726562 -42.664062 33.015625 -43.078125 31.078125 -43.078125 C 29.117188 -43.078125 27.363281 -42.640625 25.8125 -41.765625 C 24.257812 -40.890625 23.03125 -39.707031 22.125 -38.21875 C 21.21875 -36.726562 20.742188 -35.039062 20.703125 -33.15625 L 20.703125 -22.8125 C 20.703125 -20.5625 21.140625 -18.59375 22.015625 -16.90625 C 22.898438 -15.226562 24.15625 -13.921875 25.78125 -12.984375 C 27.40625 -12.054688 29.335938 -11.59375 31.578125 -11.59375 C 33.128906 -11.59375 34.535156 -11.804688 35.796875 -12.234375 C 37.066406 -12.671875 38.15625 -13.304688 39.0625 -14.140625 C 39.96875 -14.972656 40.648438 -16 41.109375 -17.21875 L 57.1875 -16.75 C 56.507812 -13.144531 55.039062 -10.007812 52.78125 -7.34375 C 50.53125 -4.6875 47.578125 -2.625 43.921875 -1.15625 C 40.273438 0.300781 36.054688 1.03125 31.265625 1.03125 Z M 31.265625 1.03125 "/></g></g></g><g fill="#000000" fill-opacity="1"><g transform="translate(369.37194, 141.932559)"><g><path d="M 31.265625 1.03125 C 25.503906 1.03125 20.539062 -0.101562 16.375 -2.375 C 12.21875 -4.65625 9.019531 -7.914062 6.78125 -12.15625 C 4.550781 -16.394531 3.4375 -21.4375 3.4375 -27.28125 C 3.4375 -32.96875 4.554688 -37.941406 6.796875 -42.203125 C 9.046875 -46.460938 12.210938 -49.78125 16.296875 -52.15625 C 20.378906 -54.53125 25.1875 -55.71875 30.71875 -55.71875 C 34.632812 -55.71875 38.210938 -55.109375 41.453125 -53.890625 C 44.703125 -52.671875 47.507812 -50.867188 49.875 -48.484375 C 52.238281 -46.097656 54.078125 -43.15625 55.390625 -39.65625 C 56.703125 -36.15625 57.359375 -32.148438 57.359375 -27.640625 L 57.359375 -23.28125 L 9.5625 -23.28125 L 9.5625 -33.4375 L 41.0625 -33.4375 C 41.039062 -35.300781 40.597656 -36.960938 39.734375 -38.421875 C 38.878906 -39.878906 37.707031 -41.019531 36.21875 -41.84375 C 34.726562 -42.664062 33.015625 -43.078125 31.078125 -43.078125 C 29.117188 -43.078125 27.363281 -42.640625 25.8125 -41.765625 C 24.257812 -40.890625 23.03125 -39.707031 22.125 -38.21875 C 21.21875 -36.726562 20.742188 -35.039062 20.703125 -33.15625 L 20.703125 -22.8125 C 20.703125 -20.5625 21.140625 -18.59375 22.015625 -16.90625 C 22.898438 -15.226562 24.15625 -13.921875 25.78125 -12.984375 C 27.40625 -12.054688 29.335938 -11.59375 31.578125 -11.59375 C 33.128906 -11.59375 34.535156 -11.804688 35.796875 -12.234375 C 37.066406 -12.671875 38.15625 -13.304688 39.0625 -14.140625 C 39.96875 -14.972656 40.648438 -16 41.109375 -17.21875 L 57.1875 -16.75 C 56.507812 -13.144531 55.039062 -10.007812 52.78125 -7.34375 C 50.53125 -4.6875 47.578125 -2.625 43.921875 -1.15625 C 40.273438 0.300781 36.054688 1.03125 31.265625 1.03125 Z M 31.265625 1.03125 "/></g></g></g><g fill="#000000" fill-opacity="1"><g transform="translate(430.172977, 141.932559)"><g><path d="M 5.546875 0 L 5.546875 -55 L 22.5625 -55 L 22.5625 -44.96875 L 23.125 -44.96875 C 24.132812 -48.601562 25.769531 -51.304688 28.03125 -53.078125 C 30.300781 -54.859375 32.941406 -55.75 35.953125 -55.75 C 36.765625 -55.75 37.597656 -55.691406 38.453125 -55.578125 C 39.316406 -55.472656 40.117188 -55.316406 40.859375 -55.109375 L 40.859375 -39.890625 C 40.015625 -40.171875 38.921875 -40.394531 37.578125 -40.5625 C 36.234375 -40.726562 35.035156 -40.8125 33.984375 -40.8125 C 31.898438 -40.8125 30.03125 -40.351562 28.375 -39.4375 C 26.71875 -38.519531 25.414062 -37.242188 24.46875 -35.609375 C 23.53125 -33.972656 23.0625 -32.054688 23.0625 -29.859375 L 23.0625 0 Z M 5.546875 0 "/></g></g></g><g fill="#000000" fill-opacity="1"><g transform="translate(472.640602, 141.932559)"><g><path d="M 5.546875 0 L 5.546875 -73.328125 L 35.84375 -73.328125 C 41.332031 -73.328125 46.078125 -72.257812 50.078125 -70.125 C 54.078125 -67.988281 57.160156 -65.015625 59.328125 -61.203125 C 61.503906 -57.398438 62.59375 -52.976562 62.59375 -47.9375 C 62.59375 -42.882812 61.488281 -38.460938 59.28125 -34.671875 C 57.070312 -30.890625 53.925781 -27.957031 49.84375 -25.875 C 45.757812 -23.800781 40.910156 -22.765625 35.296875 -22.765625 L 16.609375 -22.765625 L 16.609375 -36.734375 L 32.015625 -36.734375 C 34.679688 -36.734375 36.914062 -37.195312 38.71875 -38.125 C 40.519531 -39.0625 41.882812 -40.367188 42.8125 -42.046875 C 43.75 -43.734375 44.21875 -45.695312 44.21875 -47.9375 C 44.21875 -50.207031 43.75 -52.171875 42.8125 -53.828125 C 41.882812 -55.492188 40.515625 -56.78125 38.703125 -57.6875 C 36.890625 -58.59375 34.660156 -59.046875 32.015625 -59.046875 L 23.28125 -59.046875 L 23.28125 0 Z M 5.546875 0 "/></g></g></g><g fill="#000000" fill-opacity="1"><g transform="translate(538.383077, 141.932559)"><g><path d="M 5.546875 0 L 5.546875 -55 L 22.5625 -55 L 22.5625 -44.96875 L 23.125 -44.96875 C 24.132812 -48.601562 25.769531 -51.304688 28.03125 -53.078125 C 30.300781 -54.859375 32.941406 -55.75 35.953125 -55.75 C 36.765625 -55.75 37.597656 -55.691406 38.453125 -55.578125 C 39.316406 -55.472656 40.117188 -55.316406 40.859375 -55.109375 L 40.859375 -39.890625 C 40.015625 -40.171875 38.921875 -40.394531 37.578125 -40.5625 C 36.234375 -40.726562 35.035156 -40.8125 33.984375 -40.8125 C 31.898438 -40.8125 30.03125 -40.351562 28.375 -39.4375 C 26.71875 -38.519531 25.414062 -37.242188 24.46875 -35.609375 C 23.53125 -33.972656 23.0625 -32.054688 23.0625 -29.859375 L 23.0625 0 Z M 5.546875 0 "/></g></g></g><g fill="#000000" fill-opacity="1"><g transform="translate(580.850701, 141.932559)"><g><path d="M 31.265625 1.03125 C 25.503906 1.03125 20.539062 -0.101562 16.375 -2.375 C 12.21875 -4.65625 9.019531 -7.914062 6.78125 -12.15625 C 4.550781 -16.394531 3.4375 -21.4375 3.4375 -27.28125 C 3.4375 -32.96875 4.554688 -37.941406 6.796875 -42.203125 C 9.046875 -46.460938 12.210938 -49.78125 16.296875 -52.15625 C 20.378906 -54.53125 25.1875 -55.71875 30.71875 -55.71875 C 34.632812 -55.71875 38.210938 -55.109375 41.453125 -53.890625 C 44.703125 -52.671875 47.507812 -50.867188 49.875 -48.484375 C 52.238281 -46.097656 54.078125 -43.15625 55.390625 -39.65625 C 56.703125 -36.15625 57.359375 -32.148438 57.359375 -27.640625 L 57.359375 -23.28125 L 9.5625 -23.28125 L 9.5625 -33.4375 L 41.0625 -33.4375 C 41.039062 -35.300781 40.597656 -36.960938 39.734375 -38.421875 C 38.878906 -39.878906 37.707031 -41.019531 36.21875 -41.84375 C 34.726562 -42.664062 33.015625 -43.078125 31.078125 -43.078125 C 29.117188 -43.078125 27.363281 -42.640625 25.8125 -41.765625 C 24.257812 -40.890625 23.03125 -39.707031 22.125 -38.21875 C 21.21875 -36.726562 20.742188 -35.039062 20.703125 -33.15625 L 20.703125 -22.8125 C 20.703125 -20.5625 21.140625 -18.59375 22.015625 -16.90625 C 22.898438 -15.226562 24.15625 -13.921875 25.78125 -12.984375 C 27.40625 -12.054688 29.335938 -11.59375 31.578125 -11.59375 C 33.128906 -11.59375 34.535156 -11.804688 35.796875 -12.234375 C 37.066406 -12.671875 38.15625 -13.304688 39.0625 -14.140625 C 39.96875 -14.972656 40.648438 -16 41.109375 -17.21875 L 57.1875 -16.75 C 56.507812 -13.144531 55.039062 -10.007812 52.78125 -7.34375 C 50.53125 -4.6875 47.578125 -2.625 43.921875 -1.15625 C 40.273438 0.300781 36.054688 1.03125 31.265625 1.03125 Z M 31.265625 1.03125 "/></g></g></g><g fill="#000000" fill-opacity="1"><g transform="translate(641.651738, 141.932559)"><g><path d="M 5.546875 20.625 L 5.546875 -55 L 22.875 -55 L 22.875 -45.578125 L 23.421875 -45.578125 C 24.128906 -47.253906 25.144531 -48.863281 26.46875 -50.40625 C 27.800781 -51.957031 29.5 -53.226562 31.5625 -54.21875 C 33.625 -55.21875 36.097656 -55.71875 38.984375 -55.71875 C 42.804688 -55.71875 46.378906 -54.710938 49.703125 -52.703125 C 53.035156 -50.703125 55.726562 -47.613281 57.78125 -43.4375 C 59.84375 -39.257812 60.875 -33.9375 60.875 -27.46875 C 60.875 -21.238281 59.890625 -16.019531 57.921875 -11.8125 C 55.953125 -7.613281 53.300781 -4.460938 49.96875 -2.359375 C 46.632812 -0.265625 42.941406 0.78125 38.890625 0.78125 C 36.117188 0.78125 33.71875 0.328125 31.6875 -0.578125 C 29.65625 -1.484375 27.953125 -2.675781 26.578125 -4.15625 C 25.210938 -5.632812 24.160156 -7.222656 23.421875 -8.921875 L 23.0625 -8.921875 L 23.0625 20.625 Z M 22.703125 -27.5 C 22.703125 -24.539062 23.097656 -21.960938 23.890625 -19.765625 C 24.691406 -17.566406 25.847656 -15.863281 27.359375 -14.65625 C 28.878906 -13.457031 30.703125 -12.859375 32.828125 -12.859375 C 34.984375 -12.859375 36.8125 -13.457031 38.3125 -14.65625 C 39.8125 -15.863281 40.945312 -17.566406 41.71875 -19.765625 C 42.5 -21.960938 42.890625 -24.539062 42.890625 -27.5 C 42.890625 -30.457031 42.5 -33.019531 41.71875 -35.1875 C 40.945312 -37.363281 39.816406 -39.046875 38.328125 -40.234375 C 36.835938 -41.429688 35.003906 -42.03125 32.828125 -42.03125 C 30.679688 -42.03125 28.851562 -41.445312 27.34375 -40.28125 C 25.84375 -39.113281 24.691406 -37.441406 23.890625 -35.265625 C 23.097656 -33.097656 22.703125 -30.507812 22.703125 -27.5 Z M 22.703125 -27.5 "/></g></g></g></svg>